<svg xmlns="http://www.w3.org/2000/svg" width="1409.75" height="602.475" viewBox="0 0 1409.75 602.475">
    <g id="Grupo_5" data-name="Grupo 5" transform="translate(-665.25 -974.525)">
        <g id="Grupo_4" data-name="Grupo 4" transform="translate(14 52)">
        <g id="Grupo_2" data-name="Grupo 2" transform="translate(332.25 -211.525)">
            <path id="Trazado_1" data-name="Trazado 1" d="M448,187.643V132.618C448,60.507,381.738,2.05,300,2.05S152,60.507,152,132.618V263.186c0,10.3,9.466,18.653,21.143,18.653s21.143-8.351,21.143-18.653V224.948H363.429V187.643H194.286V132.618c0-51.508,47.33-93.263,105.714-93.263S405.714,81.11,405.714,132.618V262.254c0,10.3,9.466,18.653,21.143,18.653S448,272.555,448,262.254V224.948H553.714V560.695H46.286V224.948h63.429V187.643H4v374.73C4,582.049,22.08,598,44.383,598H555.617C577.92,598,596,582.049,596,562.374V187.643Z" transform="translate(315 1132)" fill="#f6f8fc"/>
            <text id="Wish" transform="translate(1027.75 1643.525)" fill="#f6f8fc" font-size="350" font-family="BodoniSvtyTwoOSITCTT-Book, 'Bodoni \37 2 Oldstyle'"><tspan x="0" y="0">Wish</tspan></text>
        </g>
        </g>
    </g>
</svg>